<svg width="880" height="230" viewBox="0 0 880 230" fill="none" xmlns="http://www.w3.org/2000/svg">
  <defs>
    <linearGradient id="bg" x1="0" y1="0" x2="880" y2="230" gradientUnits="userSpaceOnUse">
      <stop offset="0" stop-color="#1a1027"/>
      <stop offset="0.55" stop-color="#2b1017"/>
      <stop offset="1" stop-color="#3d1408"/>
    </linearGradient>
    <linearGradient id="flame" x1="0" y1="1" x2="0" y2="0">
      <stop offset="0" stop-color="#ffd166"/>
      <stop offset="0.5" stop-color="#ff7b3d"/>
      <stop offset="1" stop-color="#f43f2e"/>
    </linearGradient>
    <linearGradient id="wordmark" x1="0" y1="0" x2="1" y2="0">
      <stop offset="0" stop-color="#ffb26b"/>
      <stop offset="1" stop-color="#ff5d3d"/>
    </linearGradient>
  </defs>
  <rect width="880" height="230" rx="18" fill="url(#bg)"/>
  <!-- heat shimmer lines -->
  <g stroke="#ff7b3d" stroke-opacity="0.18" stroke-width="2" fill="none">
    <path d="M40 190 q30 -14 60 0 t60 0 t60 0 t60 0 t60 0 t60 0 t60 0 t60 0 t60 0 t60 0 t60 0 t60 0"/>
    <path d="M40 205 q30 -10 60 0 t60 0 t60 0 t60 0 t60 0 t60 0 t60 0 t60 0 t60 0 t60 0 t60 0 t60 0" stroke-opacity="0.10"/>
  </g>
  <!-- flame mark -->
  <g transform="translate(84,44)">
    <path d="M46 0 C52 26 78 34 78 66 C78 92 60 110 40 110 C20 110 2 92 2 66 C2 50 10 40 18 30 C18 46 26 52 32 52 C28 34 34 14 46 0 Z" fill="url(#flame)"/>
    <path d="M40 62 C48 74 54 80 54 92 C54 103 47 110 40 110 C33 110 26 103 26 92 C26 82 32 74 40 62 Z" fill="#fff3d6" fill-opacity="0.92"/>
  </g>
  <!-- wordmark -->
  <text x="200" y="112" font-family="Avenir Next, Segoe UI, Helvetica, Arial, sans-serif" font-size="64" font-weight="800" letter-spacing="6" fill="url(#wordmark)">HEATWAVE</text>
  <text x="203" y="152" font-family="Avenir Next, Segoe UI, Helvetica, Arial, sans-serif" font-size="21" font-weight="500" fill="#f5d8c4" fill-opacity="0.92">A verification protocol for AI-written code</text>
  <text x="203" y="182" font-family="Avenir Next, Segoe UI, Helvetica, Arial, sans-serif" font-size="16" font-weight="400" fill="#caa895" fill-opacity="0.85">plan · build · review · prove — in a loop that never silently restarts</text>
</svg>
